<?xml version="1.0" encoding="UTF-8" standalone="no"?>
<svg width="77.787498mm" height="102.65833mm" viewBox="0 0 77.787498 102.65833" version="1.1"
  xmlns="http://www.w3.org/2000/svg">
  <g id="layer1" transform="translate(-56.753124,-71.4375)">
    <path id="path863" style="fill:#cccccc;fill-opacity:1;stroke-width:0.264583"
      d="m 97.185799,78.338098 c -3.829234,-0.02028 -8.557162,0.267322 -10.587467,0.73949 -8.998331,2.092649 -14.756969,7.444078 -17.141073,15.928227 -1.199303,4.267877 -1.325451,6.201085 -1.327051,20.420975 l -0.0015,13.4276 h 27.294458 l -27.307894,26.59063 0.145728,11.10216 21.981604,-20.72535 32.721516,21.37441 0.19689,-10.69289 -26.289354,-17.20257 9.225274,-10.39471 c 5.68854,-0.0171 11.37709,-0.0346 17.06563,-0.0517 l -0.002,-13.4276 c -0.002,-14.2018 -0.12809,-16.156714 -1.31878,-20.39307 -2.65002,-9.42857 -9.40453,-14.899595 -20.32899,-16.465662 -1.03153,-0.147874 -2.58631,-0.22074 -4.326871,-0.22996 z m -1.90841,9.585462 c 3.178287,-0.02055 6.620971,0.292323 8.702311,0.841292 2.19267,0.578332 5.03113,1.967089 6.64921,3.253548 2.847,2.263524 5.0483,6.72977 5.63893,11.44013 0.15385,1.22703 0.27957,5.12155 0.27957,8.65425 v 6.42286 H 95.645325 74.743241 v -6.29057 c 0,-3.45994 0.122055,-7.2997 0.270785,-8.53281 0.803558,-6.662249 3.56865,-11.043695 8.491471,-13.453959 2.824125,-1.38272 4.582243,-1.824972 8.742102,-2.199349 0.940383,-0.08463 1.97036,-0.128541 3.02979,-0.135392 z" />
    <path style="fill:#ffff00;fill-opacity:1;stroke:none;stroke-width:0;stroke-dasharray:none;stroke-opacity:1"
      d="M 127.92469,122.76666 V 74.347918 h 1.71979 1.71979 v 48.418742 48.41875 h -1.71979 -1.71979 z" id="path304" />
  </g>
</svg>